<svg id="Layer_1" data-name="Layer 1" xmlns="http://www.w3.org/2000/svg" viewBox="0 0 100 100.03"><defs><style>.cls-1{fill:#cdcccc;}</style></defs><title>earth</title><path class="cls-1" d="M340.14,361.69a50.07,50.07,0,1,0,6.28,63.16c13.11-19.6,10.36-46.52-6.28-63.16h0ZM337.86,364a47.67,47.67,0,0,1,3.26,3.61,2.59,2.59,0,0,1-1.19,1.42,1,1,0,0,0,.88.05,4,4,0,0,0,.13.54,6.14,6.14,0,0,1,.79-0.42l0.52-.13,0.33,0.45a3.14,3.14,0,0,0-.84,1.09,0.81,0.81,0,0,0,.24.64c0,0.13.05,0.27,0.09,0.41,0.32-.15.33,0.21,0.39,0.42,0.18,0.58,1.16,1.12.81,1.87a1.64,1.64,0,0,0,.32-0.11c-0.32.65,0.11,1.33-.08,2a2.8,2.8,0,0,1-.67.62,5.25,5.25,0,0,0-.91,1.69,1.88,1.88,0,0,1-.68.47c-0.3.28-.26,0.68-0.55,0.9s-1.84.22-1.61,1.06a5.23,5.23,0,0,1-.82.24,1.16,1.16,0,0,0-1.16,1.66c0.41,1,4.22,2.64,2.47,4.52a7.6,7.6,0,0,0-.82,1c-0.29.31-.71,0.58-0.91,0.18q-0.14-.84-0.83-0.6c-0.72,0-1.54-1.33-2.06-.43-0.38.65,0.94,2.22,1.12,2.86,1.52,0.28,2,1.86,2.32,3.16-1.29.48-2.82-2.72-3.28-3.41a1.74,1.74,0,0,1-.76-1.5c-0.25-1.43-.93-2.15-1.27-3.46a6.31,6.31,0,0,0-.72.46,0.68,0.68,0,0,1-.79-0.33c0.57-.71-2.27-3.71-3-2.83a3.51,3.51,0,0,1-.36.78c-0.87.67,0.06,0.36-.76,1.4a14.44,14.44,0,0,0-2.28,2.56c-0.33.91,0.38,1.21,0.26,2a18.54,18.54,0,0,1-1.06,3.34,4.65,4.65,0,0,1-.82-1.78,6.33,6.33,0,0,0-.74-0.51,7.09,7.09,0,0,1-.62-0.71c-0.61-.93-1.06-3.43-2.11-4a7.65,7.65,0,0,0-.93,0,2.19,2.19,0,0,1-.59-0.58c-1.22-2-2.9-1.35-5.11-1a0.41,0.41,0,0,0-.07-0.11,0.91,0.91,0,0,1-1.13-.16c-0.9-.16-1.52.2-2.38-0.06-0.36-.11-2.21-1.88-2.56-1.2-0.44.87,1.53,2.34,2.09,2.66a1.35,1.35,0,0,1,.18,0,1.64,1.64,0,0,1,.22.27,0.67,0.67,0,0,1,.33.47,1.23,1.23,0,0,0,.93-0.64,1,1,0,0,1,.79-0.42c0.55,0.08,2.24.78,2.21,1.41a7.58,7.58,0,0,1-1.09,2.8c-1.26,1.32-3.31,4.13-5.36,4.25a0.92,0.92,0,0,1-.19-0.42,4.24,4.24,0,0,1-.81-0.68,22,22,0,0,0-3.13-4.53c-1-1.29-4.19-3.31-1.85-.65,0.12,0.15.2,0.36,0.33,0.49a4.27,4.27,0,0,1,.51.29,8.52,8.52,0,0,1,.87,1.55c0.73,1.37,1.25,1.46,2.07,2.36,2.55,2.83,2.1,3.45,5.67,2a2.32,2.32,0,0,1,.19.89,2.91,2.91,0,0,1-.17.34c-0.27,1.87.49,2.72-.91,4.55a2,2,0,0,0-.42.5c-0.54-.17-1.41,2.09-1.55,2.53-0.68,2-.12,2.71.57,4.61,0.48,1.31,1.16,2.66.68,4.1-0.58,1.75-2.22,1.82-1.23,4a1.81,1.81,0,0,1,.4,1.13c-0.07.12-.36,0.21-0.46,0.33a4.55,4.55,0,0,0-.34.78c0.6,0-.55,3.83-0.8,4.23-0.66,1.12-3.94,4-5.41,3-0.29-.23-0.31-0.65-0.65-0.89,0.4-.35-3.6-7.34-4.31-8.25-1-1.17,0-2-.54-3.48a2.59,2.59,0,0,1-.15-0.37,8.81,8.81,0,0,0-2-4.7c-1.47-1.77-1.19-1.57-2-4.3a9.83,9.83,0,0,0-1-.09c-0.8.2-.71,0.6-1.53,0-1.36-1-2,.5-3,0.83-0.37.13-.79,0.19-1.17,0.29a6.3,6.3,0,0,1-4.21,0c-0.59-.13-3.26-4.18-3.34-4.56a3.09,3.09,0,0,1-.14-0.59,0.71,0.71,0,0,1,.07-0.34l0,0a26.68,26.68,0,0,1-.49-2.8c-0.33-2,.09-1.95.82-3.43,0.82-1.7.59-2.64,1.08-4.37,0.16-.55,1.29-1.55,1.28-2.06a6.41,6.41,0,0,1,1-.1c1.42-.2,2.88-1.46,4.19-2.05a6.46,6.46,0,0,1,2.72-1,9.46,9.46,0,0,0,.57,2.39c0.93,0.76,2.8,0,4,.82a0.87,0.87,0,0,0,.84,0c-0.74-2.34,4.18-1.23,5.3-1.55-0.13-.41,1-0.36,1.12-0.51,0.44-.54.18-1.66,0.13-2.22a1.69,1.69,0,0,1,.13-1.36c0-.08-4,1.08-4.3.46s-0.17-1-.79-1.46a0.6,0.6,0,0,1-.43-0.53,0.69,0.69,0,0,0-.77,0c-0.65.49-.48,0.92-0.28,1.6,0.14,0,.29-0.07.45-0.09a0.66,0.66,0,0,1,0,.72,0.56,0.56,0,0,0-.16.58c-1,.46-2-2.65-2.51-3a18.46,18.46,0,0,0-4-1.5c-0.5.43,2.06,1.76,2.29,1.9a3.21,3.21,0,0,1,1,.74c-0.45.09-.26,0.44-0.17,0.8s0.24,0.53-.19.74a1.42,1.42,0,0,0-.6-0.91,24,24,0,0,1-2.8-1.88c-1.12.31-2.17,0.53-3.49,0.91,0.1,0.69.39,1.06-.13,1.52a3.39,3.39,0,0,0-.41,1c-0.5.9-.58,1.69-1.43,2.43-1.25,1.08-2.27.2-3.59,0.41-0.05-.2-0.81-3.77-0.83-3.72,0.53-1.14,2.84-.72,3.88-1.71,0.63-.55-0.86-1.34-1-1.46-0.32-.26-1.66-1-0.67-1.15,0.57-.12.63-0.21,0.53-0.73,0.69-.32,1-0.73,1.75-1.12,0-1.08,2-2.21,2.62-3.4a5.74,5.74,0,0,0-.23-1.89,2.11,2.11,0,0,1-.06-0.78,0.81,0.81,0,0,1,.5-0.15c0.73,1.08.17,1.43,1.38,1.94,0.43,0.16,2.3.31,2.21-.39,0.71-.22,1.85-0.36,2-1.21a1.05,1.05,0,0,0-.09-0.48c-0.11-.27-0.27-0.11-0.1-0.34a0.41,0.41,0,0,0,.38-0.33,0.9,0.9,0,0,0,.15-0.41,4.85,4.85,0,0,1,.51,0c0,0.09.07,0.21,0.07,0.3,0.21,0,.42-0.09.61-0.14a2.32,2.32,0,0,0-1.74-1.46c0.5-.12,3.59-0.71,3.13-1.69a5.83,5.83,0,0,0-1.49.18c-0.79.16-2.67,1.36-2.61-.81a1.82,1.82,0,0,1,.15-0.24c0.17-.71,1.15-1.63,1.1-2.24-0.12-1.3-1.51-.71-1.46.34,0,0.13.09,0.27,0.09,0.42a0.52,0.52,0,0,1-.12.32,6,6,0,0,1-1.66,2.06,1.62,1.62,0,0,0,.45.84c1.2,1-.13,1.57.62,2.28,0,0.29-.3.68-0.27,1a2.46,2.46,0,0,0,.36-0.08,7,7,0,0,1-2.43,1.51,0.52,0.52,0,0,1-.09-0.27c0.22-.19.58-0.17,0.38-0.54a2.66,2.66,0,0,0-.38-0.3c-0.53-.61-0.5-1.21-1.29-1.69,0,0.92-1.55,1-2.28,1.17-1-3.34,1.18-4.57,2.7-7.6,1.15-2.29,4-5.54,6.81-5.24a3.87,3.87,0,0,1,.21.69c0,0.05-.2.12-0.14,0.23a0.46,0.46,0,0,0,.38.09c1.26,0,1.08-.43,2.4-0.18,1,0.13,2.1-.52,2.66.8a0.89,0.89,0,0,0,.45,0,1.24,1.24,0,0,1,.17.6,1.15,1.15,0,0,1-1,.74c-0.91.46-2.58,0.54-1.26,1.6a1.29,1.29,0,0,0,1.13.39c0-.22,0-0.83-0.38-0.72a1.6,1.6,0,0,1,.85-0.28c0.26,0,.37.4,0.66,0.22-0.78-2.24,3.06-1,1.38-3.08a0.59,0.59,0,0,1-.19-0.68,0.92,0.92,0,0,1,1.18,0c0.3,0.51-.88,1.55.69,1.19-0.07-1.07,2.2-2.08,2.75-2.85a0.62,0.62,0,0,1,.71.55,2.63,2.63,0,0,0,1.06-.42c0.36-.2.29-0.58,0.8-0.64s1.62-.24.25-0.68a0.6,0.6,0,0,1-.72-0.5,0.68,0.68,0,0,1,.92-0.1,1.15,1.15,0,0,1,.32.12,10,10,0,0,0,4.05.5c-0.05-.56-0.52-0.51-0.83-0.83a1.74,1.74,0,0,1-.33-0.8A46.48,46.48,0,0,1,337.86,364h0Zm9.43,30.37a2.18,2.18,0,0,1,.29.62l0,0.29c-0.16,0-.28-0.06-0.43-0.06-0.27-.94-1.06-1.58-0.87-2.64a1.15,1.15,0,0,1,.73.06,5.53,5.53,0,0,1,.74.78c0,0.07.15,0.06,0.22,0.14a2.53,2.53,0,0,0,.55.69,0.79,0.79,0,0,1-1.16-.59,0.5,0.5,0,0,0-.24.06,4.48,4.48,0,0,1,.21.63h0Zm-2-.5-0.16.65c-1.43.32-3.18,0.92-3.7-1.13a2.23,2.23,0,0,1,1-2.45c0.79-.69,1.05-2.33,2.4-2.21,0.37,0.86-.27,1,0.32,1.68a3.28,3.28,0,0,1,.38.73C346,392,345,392.85,345.28,393.85Zm-0.75,3.48s-0.07,0-.1,0a0.76,0.76,0,0,1-.69.19,9.58,9.58,0,0,0-2.74.12c-0.26-.36-0.34-0.66.09-0.73a10.52,10.52,0,0,1,2.49-.39c0.45,0.07.43,0.57,0.88,0.46a0.83,0.83,0,0,1,.07.32S344.53,397.24,344.53,397.33Zm-0.62-20.42c0.12,0.39.16,0.86,0.26,1.29l0.06,0.39a2.17,2.17,0,0,0-.51.15c-0.12-.42-0.69-1.84.19-1.83C344,377.3,343,376.9,343.92,376.92Zm1.27,6.66a1.24,1.24,0,0,1-.78-0.7l-0.07-.45,0-1,0.07-.67a2.63,2.63,0,0,0,1-.19c0.22-.17.14,0.47,0.22,0.64s0.28,1.78-.21,1.89c0.91-.19,1.43-0.12,1.68.93-0.39.35-1-.05-1.92-0.44h0Zm0.88,1.31,0.17,0.23a1.71,1.71,0,0,0,.95.31,1.09,1.09,0,0,1,.39-0.88h0.07a2.31,2.31,0,0,1,.22.79c-0.49.13-.72,0.72-1.29,0.76S345.58,385.05,346.06,384.89Zm2.24,2.65a2.18,2.18,0,0,0-.24.29,0.42,0.42,0,0,1-.61-0.26l-0.28-.37-0.07,0c-1.14.3,0.42-1.45,1-1.36a2.35,2.35,0,0,0,.45,1c0.22,0.23.5,0.36,0.1,0.6-0.1.07-.29,0-0.39,0.11S348.4,387.47,348.3,387.54Zm-6.92-19.62,0.4,0.5a0.39,0.39,0,0,1-.4-0.5C341.52,368.09,341.37,368,341.38,367.92ZM314.6,410a2.62,2.62,0,0,0,0,2.19,7.22,7.22,0,0,1,.28,1.24c-0.09,2-2.56,2.63-2.76.24a17.24,17.24,0,0,0-.22-2.57,4.44,4.44,0,0,1-.28-0.86,1.1,1.1,0,0,1,.59-0.47,3.55,3.55,0,0,1,.37-0.43,1.34,1.34,0,0,0,.85-1.17c0.18-.33,0-0.4.23-0.71l0.18-.36c0.1,0.19.13,0.39,0.21,0.48s0.23,0.21.32,0.33a3.29,3.29,0,0,1,.31,1.19,0.74,0.74,0,0,1-.15.12,6.41,6.41,0,0,1,0,.77C314.56,410.4,314.63,409.78,314.6,410ZM325.79,391a0.83,0.83,0,0,1,.94.81c0.06,0,0,.35.07,0.33l-0.06.49c-1,.37-0.85-1.17-1-1.64C326.38,390.81,325.83,391.16,325.79,391Zm11,3.81a17,17,0,0,1-2.59-2.91v-0.07a3,3,0,0,0,.73,0q0.59-.33.61,0.32c0.28,0.59,3.11,2.3,3.88,2.78,0.5,0.26,1.4.87,0.63,1.65-1,1-2.71-1.23-3.25-1.8h0Zm2.69-13.4-0.23.35c-0.88,1-1.43-.67,0-0.57A2,2,0,0,1,339.51,381.38Zm-64.41-9,0.82-.27,0.42-.75,0.37,0.05c0.62,0.67.71,2.27-.56,2.62a2.32,2.32,0,0,1-.76-0.12v-0.88Zm26.67-18.18h0l-0.07.06a0.14,0.14,0,0,1,0-.06,0.63,0.63,0,0,1-.68-0.34,1,1,0,0,1,.86-0.38,0.42,0.42,0,0,1-.18.72h0Zm-23,18.81a2.12,2.12,0,0,1,.14-1.28l-0.35-.58-0.41-.19-0.43,0,0-.72-0.43-.63-0.19-.18c-0.56-.19.36-1.37,0.59-1.18a1.21,1.21,0,0,1,0,1l0.89-.21a3,3,0,0,1-.14,1.57l0.53-.2,1.11,1,0.3,0.37,0.64,0.58c0.9,1.54-.83,1.5-2.07,1.8l0.36-.66Zm-3.11-6.55h0a0.7,0.7,0,0,1-.4-0.58l0.44-.11a2.83,2.83,0,0,1,.07.63,0.24,0.24,0,0,0-.12.06h0Zm13.81,14.61c0-.36.74-0.36,0.93-0.14h0.06a0.77,0.77,0,0,1,0,.31l0,0.24c-0.21.09-1,0-1-.4S289.42,381.32,289.45,381.11Zm15-29.77c0.13,0.1.33,0.11,0.44,0.2a2.43,2.43,0,0,1,.23.22h0v0l0,0q-1,.1-2.07.28c-0.11-.45-0.35-0.49-0.82-0.43-0.45-.37-0.13-0.46.29-0.59a3.1,3.1,0,0,0,.14-0.73l1.27,0a1.23,1.23,0,0,1-.19.32,1.51,1.51,0,0,1,.71.76C304.57,351.44,304.19,351.09,304.44,351.34ZM259.67,408c1,0.37,2.07-.62,3.07.38,0.49,0.53,1.94,2,.92,2.8,0.3,0.27,2.73-.13,3.21-0.11,1,0.06,4.25.37,5,1,1.45,1.19.15,2.83,0,4.28s0.81,3.5.26,4.82c-0.19.42,0.07,1-.13,1.46a12.88,12.88,0,0,1-1.31,1.14c-1.17,1.42-2,1.34-1.76,3.49a46.38,46.38,0,0,1-9.78-19.55,2.39,2.39,0,0,0,.56.35C260.7,408.38,259.51,408,259.67,408Zm89.24,3.74c-0.55-.94-1.43-4.24-2.4-4.66-0.71-2.38,3.8-2.75,3.16-5a0.25,0.25,0,0,1,.13,0c0,0.36,1.89-2.6,1.71-2.49a46.7,46.7,0,0,1-2.72,13.49c0-.55.48-0.73,0.12-1.33S349.26,412.34,348.9,411.75Z" transform="translate(-254.69 -347.09)"/></svg>